<?xml version="1.0" encoding="UTF-8" standalone="no"?>
<svg
   height="16"
   width="16"
   version="1.1"
   id="svg1"
   sodipodi:docname="system-logs-symbolic.svg"
   inkscape:version="1.3.2 (091e20ef0f, 2023-11-25)"
   xmlns:inkscape="http://www.inkscape.org/namespaces/inkscape"
   xmlns:sodipodi="http://sodipodi.sourceforge.net/DTD/sodipodi-0.dtd"
   xmlns="http://www.w3.org/2000/svg"
   xmlns:svg="http://www.w3.org/2000/svg">
  <defs
     id="defs1" />
  <sodipodi:namedview
     id="namedview1"
     pagecolor="#ffffff"
     bordercolor="#000000"
     borderopacity="0.25"
     inkscape:showpageshadow="2"
     inkscape:pageopacity="0.0"
     inkscape:pagecheckerboard="0"
     inkscape:deskcolor="#d1d1d1"
     inkscape:zoom="39.875"
     inkscape:cx="7.9874608"
     inkscape:cy="8"
     inkscape:window-width="1600"
     inkscape:window-height="833"
     inkscape:window-x="0"
     inkscape:window-y="0"
     inkscape:window-maximized="1"
     inkscape:current-layer="svg1" />
  <g
     color="#bebebe"
     transform="translate(-1053 267)"
     id="g1" />
  <path
     id="path1-3"
     style="overflow:visible;fill:#666666;marker:none"
     d="M 7.202,6 V 7.187 L 7.027,7.25 C 6.945,7.28 6.851,7.325 6.751,7.373 L 6.583,7.455 5.749,6.623 c 0,-0.003 -0.01,-0.004 -0.012,-0.006 0,0.002 -0.012,0.004 -0.012,0.006 l -1.1,1.1 c 0.012,-0.011 0.012,0.03 0,0.02 L 5.458,8.578 5.376,8.748 C 5.331262,8.836983 5.290881,8.9280911 5.255,9.021 L 5.19,9.199 H 4 v 1.597999 h 1.19 l 0.065,0.178 c 0.029,0.08 0.072,0.173 0.12,0.273 l 0.083,0.17 -0.832,0.836 c 0.01,-0.01 0.01,0.03 0,0.02 l 1.1,1.099 c -0.012,-0.01 0.032,-0.01 0.022,0 l 0.834,-0.832 0.168,0.082 c 0.1,0.047 0.193,0.093 0.276,0.123 l 0.175,0.062 v 1.188 h 1.5999996 v -1.188 l 0.178,-0.062 c 0.082,-0.03 0.173,-0.075 0.273,-0.123 l 0.172,-0.082 0.8319994,0.832 c -0.011,-0.01 0.034,-0.01 0.023,0 l 1.1,-1.1 c -0.011,0.011 -0.011,-0.03 0,-0.02 l -0.834,-0.835 0.082,-0.17 c 0.048,-0.1 0.092,-0.192 0.12,-0.274 l 0.065,-0.177 h 1.188 V 9.199 h -1.188 l -0.064,-0.178 c -0.03536,-0.093124 -0.07575,-0.1842586 -0.121,-0.273 l -0.082,-0.17 0.834,-0.836 c -0.011,0.01 -0.011,-0.03 0,-0.02 l -1.1,-1.099 c 0.011,0.01 -0.034,0.01 -0.022,0 l -0.8339994,0.832 -0.17,-0.082 c -0.099,-0.048 -0.193,-0.093 -0.275,-0.123 l -0.176,-0.063 V 6 Z m 0.801,2.666 c 0.7329996,0 1.3319996,0.6 1.3319996,1.332 0,0.732999 -0.599,1.331999 -1.3319996,1.331999 -0.733,0 -1.334,-0.6 -1.334,-1.331999 0,-0.733 0.601,-1.332 1.334,-1.332 z M 3,0 C 2.446,0 2,0.446 2,1 v 14 c 0,0.554 0.446,1 1,1 h 10 c 0.554,0 1,-0.446 1,-1 V 5 C 14,4.446 9.554,0 9,0 Z M 3.5,1 H 9 v 4 h 4 v 9.5 c 0,0.277 -0.223,0.5 -0.5,0.5 h -9 C 3.2236,15.00055 2.9994,14.77637 3,14.5 V 1.5 C 3,1.223 3.223,1 3.5,1 Z" />
</svg>
